<svg version="1.1" id="Layer_1" xmlns="http://www.w3.org/2000/svg" x="0" y="0" viewBox="0 0 256 256" style="enable-background:new 0 0 256 256" xml:space="preserve"><style>.st1{fill:#291b4a}.st2{fill:#ed9abc}.st3{fill:#e54890}.st4{fill:#d3d3d3}.st6{fill:#f9b087}.st7{fill:#ff8639}</style><circle transform="rotate(-45.001 128 128.002)" cx="128" cy="128" style="fill:#382b73" r="119.4"/><path class="st1" d="M138.041 83.255a2.5 2.5 0 0 0-4.369-2.431c-2.309 4.149-7.562 5.648-11.712 3.339a2.5 2.5 0 0 0-2.431 4.369 13.52 13.52 0 0 0 6.594 1.714c.389 0 .776-.023 1.163-.056 1.288 1.515 2.237 3.287 2.723 5.212a2.501 2.501 0 0 0 3.036 1.812 2.5 2.5 0 0 0 1.812-3.036 17.916 17.916 0 0 0-2.419-5.483 13.527 13.527 0 0 0 5.603-5.44z"/><path class="st1" d="M173.71 66.513a22.583 22.583 0 0 0-20.817-13.858c-1.875 0-3.733.232-5.542.69a22.439 22.439 0 0 0-14.522-5.3 22.45 22.45 0 0 0-11.27 3.013 22.444 22.444 0 0 0-11.269-3.013 22.561 22.561 0 0 0-16.165 6.83 21.588 21.588 0 0 0-2.887-.196c-10.34 0-19.335 7.536-21.196 17.636l-.096.125a17.523 17.523 0 0 0-9.903 17.711 19.083 19.083 0 0 0-6.92 14.69c0 9.62 8.523 19.062 17.207 19.062H94.3a2.5 2.5 0 0 0 2.5-2.5c0-.8-.382-1.503-.966-1.961a12.983 12.983 0 0 1 3.085-12.342 13.028 13.028 0 0 1 7.975-4.006 2.5 2.5 0 0 0 2.197-2.77 2.498 2.498 0 0 0-2.77-2.197 18.031 18.031 0 0 0-11.042 5.545 17.955 17.955 0 0 0-4.662 15.23H70.331c-5.818 0-12.207-7.359-12.207-14.062 0-4.597 2.258-8.914 6.042-11.547a2.5 2.5 0 0 0 1.023-2.542 12.525 12.525 0 0 1 6.904-13.787 13.017 13.017 0 0 1 5.279 2.361c.379.287.734.6 1.076.924a18.04 18.04 0 0 0-6.56 6.825 17.893 17.893 0 0 0-1.466 13.71 17.88 17.88 0 0 0 5.291 8.343 2.497 2.497 0 0 0 .961 4.902 13.52 13.52 0 0 0 8.739-5.671 13.52 13.52 0 0 0 2.17-10.189 2.5 2.5 0 0 0-4.917.909 8.554 8.554 0 0 1-1.373 6.446 8.805 8.805 0 0 1-.811.996 12.912 12.912 0 0 1-5.263-7.147 12.933 12.933 0 0 1 1.059-9.905 13.019 13.019 0 0 1 5.086-5.121c.359.794.649 1.622.843 2.481a2.5 2.5 0 1 0 4.877-1.101 18.033 18.033 0 0 0-6.692-10.387 18.097 18.097 0 0 0-5.288-2.761c1.681-7.43 8.414-12.902 16.135-12.902.247 0 .496.024.744.036-.921 6.685 2.022 13.396 7.565 17.254a13.514 13.514 0 0 0-2.788 6.973 2.501 2.501 0 0 0 4.976.498 8.554 8.554 0 0 1 3.115-5.808 8.55 8.55 0 0 1 6.31-1.903 2.501 2.501 0 0 0 .498-4.976 13.518 13.518 0 0 0-8.183 1.783c-5.15-2.878-7.743-8.938-6.234-14.658a17.558 17.558 0 0 1 13.049-5.833c3.036 0 5.976.777 8.591 2.248a17.951 17.951 0 0 0 4.63 13.243c.493.544 1.171.82 1.853.82a2.5 2.5 0 0 0 1.851-4.179 12.96 12.96 0 0 1-3.324-9.681 17.47 17.47 0 0 1 8.939-2.45c4.548 0 8.864 1.736 12.151 4.89a2.501 2.501 0 0 0 2.501.574c1.75-.567 3.57-.854 5.412-.854a17.577 17.577 0 0 1 16.104 10.558c-2.605 2.983-6.401 4.639-10.402 4.447a13.03 13.03 0 0 1-7.441-2.783 13.503 13.503 0 0 0-3.096-8.376 2.502 2.502 0 0 0-3.86 3.18c1.463 1.775 2.146 4.014 1.925 6.303s-1.321 4.356-3.096 5.818a2.5 2.5 0 1 0 3.179 3.86 13.537 13.537 0 0 0 3.976-5.432 18.042 18.042 0 0 0 9.039 2.445 17.944 17.944 0 0 0 13.592-6.216c7.195 2.166 12.299 8.81 12.48 16.409-1.885.311-3.68.905-5.331 1.757-4.122 1.923-9.086.305-11.243-3.757a2.499 2.499 0 1 0-4.416 2.344 13.523 13.523 0 0 0 8.034 6.633c.414.127.832.227 1.252.313a18.335 18.335 0 0 0-1.859 3.297 2.5 2.5 0 1 0 4.586 1.993 12.946 12.946 0 0 1 6.369-6.584l.022-.01a13.05 13.05 0 0 1 4.493-1.188c5.077 2.147 8.339 7.032 8.339 12.573 0 6.699-4.985 12.507-11.596 13.51a3.854 3.854 0 0 0-.155.028 5.456 5.456 0 0 1-1.152.127h-15.17c.061-.321.117-.642.161-.965 1.334-9.844-5.589-18.938-15.433-20.272a2.5 2.5 0 1 0-.671 4.955c3.445.467 6.502 2.248 8.608 5.014s3.009 6.187 2.542 9.631a13.42 13.42 0 0 1-.314 1.585c-.005.017-.004.035-.008.052H161.3a2.5 2.5 0 1 0 0 5h21.337c.706 0 1.423-.075 2.132-.224 8.996-1.403 15.771-9.317 15.771-18.441 0-7.141-3.959-13.494-10.23-16.652l.002-.307c0-10.173-6.903-19.112-16.602-21.766z"/><path class="st1" d="M116.25 129.945c0 6.479 5.271 11.75 11.75 11.75s11.75-5.271 11.75-11.75-5.271-11.75-11.75-11.75-11.75 5.271-11.75 11.75zm18.5 0a6.758 6.758 0 0 1-6.75 6.75 6.758 6.758 0 0 1-6.75-6.75 6.758 6.758 0 0 1 6.75-6.75 6.758 6.758 0 0 1 6.75 6.75zM120.867 189.147a2.5 2.5 0 1 0 0 5H128a2.5 2.5 0 1 0 0-5h-7.133zM120.867 199.32a2.5 2.5 0 1 0 0 5h14.266a2.5 2.5 0 1 0 0-5h-14.266z"/><path class="st1" d="m151.002 110.986-4.044-4.044a5.022 5.022 0 0 0-6.101-.775l-3.981 2.35-1.154-4.479a5.023 5.023 0 0 0-4.862-3.764h-5.719a5.022 5.022 0 0 0-4.862 3.766l-1.153 4.477-3.984-2.352a5.023 5.023 0 0 0-6.099.777l-4.044 4.044a5.02 5.02 0 0 0-.775 6.101l2.35 3.981-4.48 1.155a5.025 5.025 0 0 0-3.763 4.862v5.719a5.024 5.024 0 0 0 3.766 4.863l4.477 1.154-2.351 3.983a5.02 5.02 0 0 0 .777 6.099l4.043 4.043a5.024 5.024 0 0 0 6.102.776l3.981-2.35 1.155 4.48a5.022 5.022 0 0 0 4.861 3.763h.761v7.136h-45.6a2.5 2.5 0 0 0-2.5 2.5v9.636H67.774a5.483 5.483 0 0 0-5.477 5.477v25.053a5.483 5.483 0 0 0 5.477 5.477h25.053a5.483 5.483 0 0 0 5.477-5.477v-25.053a5.483 5.483 0 0 0-5.477-5.477H82.801v-7.136h43.1v7.136h-10.427a5.483 5.483 0 0 0-5.477 5.477v25.053a5.483 5.483 0 0 0 5.477 5.477h25.053a5.483 5.483 0 0 0 5.477-5.477v-25.053a5.483 5.483 0 0 0-5.477-5.477h-9.625v-7.136H173.2v7.136h-10.026a5.483 5.483 0 0 0-5.477 5.477v25.053a5.483 5.483 0 0 0 5.477 5.477h25.053a5.483 5.483 0 0 0 5.477-5.477v-25.053a5.483 5.483 0 0 0-5.477-5.477h-10.026v-9.636a2.5 2.5 0 0 0-2.5-2.5h-44.798v-7.14a5.021 5.021 0 0 0 4.821-3.763l1.154-4.477 3.984 2.352a5.023 5.023 0 0 0 6.099-.777l4.044-4.044a5.022 5.022 0 0 0 .775-6.102l-2.35-3.98 4.479-1.154a5.023 5.023 0 0 0 3.764-4.862v-5.719a5.024 5.024 0 0 0-3.763-4.862l-.004-.001-4.477-1.154 2.351-3.983a5.02 5.02 0 0 0-.778-6.099zm-58.175 72.903c.263 0 .477.214.477.477v25.053a.478.478 0 0 1-.477.477H67.774a.478.478 0 0 1-.477-.477v-25.053c0-.263.214-.477.477-.477h25.053zm95.399 0c.263 0 .477.214.477.477v25.053a.478.478 0 0 1-.477.477h-25.053a.478.478 0 0 1-.477-.477v-25.053c0-.263.214-.477.477-.477h25.053zm-47.7 0c.263 0 .477.214.477.477v25.053a.478.478 0 0 1-.477.477h-25.053a.478.478 0 0 1-.477-.477v-25.053c0-.263.214-.477.477-.477h25.053zm12.131-56.825.624-2.421-.61 2.442-.014 5.74-7.696 1.983a2.5 2.5 0 0 0-1.529 3.692l4.035 6.868-4.068 4.049-6.844-4.04a2.498 2.498 0 0 0-3.692 1.529l-2.004 7.71-5.74-.014-1.983-7.696a2.5 2.5 0 0 0-3.692-1.529l-6.868 4.035-4.049-4.069 4.039-6.843a2.499 2.499 0 0 0-1.529-3.691l-7.709-2.004.014-5.74 7.695-1.983a2.5 2.5 0 0 0 1.529-3.691l-4.034-6.869 4.068-4.049 6.844 4.04a2.501 2.501 0 0 0 3.692-1.529l2.003-7.709 5.74.014 1.983 7.695a2.5 2.5 0 0 0 3.692 1.529l6.868-4.035 4.049 4.068-4.04 6.844a2.501 2.501 0 0 0 1.529 3.692l7.697 1.982z"/><path class="st1" d="M175.699 194.147a2.5 2.5 0 1 0 0-5h-7.133a2.5 2.5 0 1 0 0 5h7.133zM182.832 204.32a2.5 2.5 0 1 0 0-5h-14.266a2.5 2.5 0 1 0 0 5h14.266zM73.168 189.147a2.5 2.5 0 1 0 0 5h7.133a2.5 2.5 0 1 0 0-5h-7.133zM73.168 199.32a2.5 2.5 0 1 0 0 5h14.266a2.5 2.5 0 1 0 0-5H73.168z"/><g><path class="st4" d="M125.901 153.116v24.272a2.5 2.5 0 1 0 5 0v-24.272a2.5 2.5 0 1 0-5 0z"/><path class="st4" d="M175.699 179.889a2.5 2.5 0 0 0 2.5-2.5v-12.136a2.5 2.5 0 0 0-2.5-2.5H80.301a2.5 2.5 0 0 0-2.5 2.5v12.136a2.5 2.5 0 1 0 5 0v-9.636h90.398v9.636a2.5 2.5 0 0 0 2.5 2.5z"/><path d="M175.699 179.889a2.5 2.5 0 0 0 2.5-2.5v-12.136a2.5 2.5 0 0 0-2.5-2.5h-44.798v-9.636a2.5 2.5 0 1 0-5 0v9.636h-45.6a2.5 2.5 0 0 0-2.5 2.5v12.136a2.5 2.5 0 1 0 5 0v-9.636h43.1v9.636a2.5 2.5 0 1 0 5 0v-9.636h42.298v9.636a2.5 2.5 0 0 0 2.5 2.5zm-44.798-13.637a1.5 1.5 0 0 0-1.5 1.5v9.636c0 .551-.449 1-1 1s-1-.449-1-1v-9.636a1.5 1.5 0 0 0-1.5-1.5h-43.1a1.5 1.5 0 0 0-1.5 1.5v9.636c0 .551-.449 1-1 1s-1-.449-1-1v-12.136c0-.551.449-1 1-1h45.6a1.5 1.5 0 0 0 1.5-1.5v-9.636c0-.551.449-1 1-1s1 .449 1 1v9.636a1.5 1.5 0 0 0 1.5 1.5h44.798c.551 0 1 .449 1 1v12.136c0 .551-.449 1-1 1s-1-.449-1-1v-9.636a1.5 1.5 0 0 0-1.5-1.5h-42.298z" style="fill:#ebe7f2"/><path class="st2" d="M174.022 97.952a2.5 2.5 0 0 0 2.294-1.504c1.989-4.579 6.325-7.575 11.315-7.818a2.5 2.5 0 0 0-.244-4.994c-6.904.337-12.904 4.483-15.657 10.82a2.5 2.5 0 0 0 2.292 3.496zM82.978 79.573a2.499 2.499 0 1 0-1.813-4.659 18.023 18.023 0 0 0-9.276 8.162 17.893 17.893 0 0 0-1.466 13.71 17.897 17.897 0 0 0 8.658 10.731 2.498 2.498 0 0 0 3.391-.998 2.5 2.5 0 0 0-.998-3.392 12.932 12.932 0 0 1-6.255-7.753 12.933 12.933 0 0 1 1.059-9.905 13.03 13.03 0 0 1 6.7-5.896z"/><path class="st2" d="M172.338 90.844c1.318.404 2.666.604 4.006.604 2.194 0 4.37-.537 6.364-1.595a2.499 2.499 0 0 0 1.036-3.38 2.498 2.498 0 0 0-3.38-1.036c-4.195 2.225-9.417.625-11.644-3.569a2.5 2.5 0 1 0-4.416 2.344 13.521 13.521 0 0 0 8.034 6.632zM146.833 65.34a2.5 2.5 0 0 0 .133 3.533 18.025 18.025 0 0 0 12.258 4.801 17.963 17.963 0 0 0 14.618-7.5 2.5 2.5 0 1 0-4.057-2.921 12.978 12.978 0 0 1-11.188 5.407 13.02 13.02 0 0 1-8.229-3.452 2.503 2.503 0 0 0-3.535.132zM95.758 51.166a2.5 2.5 0 0 0-3.134 1.636c-2.689 8.564 1.423 17.893 9.566 21.7a2.499 2.499 0 0 0 3.323-1.206 2.499 2.499 0 0 0-1.206-3.323c-5.883-2.75-8.855-9.488-6.913-15.672a2.5 2.5 0 0 0-1.636-3.135zM126.64 81.897a2.499 2.499 0 0 0-.013 3.535 13 13 0 0 1 3.382 5.97 2.501 2.501 0 0 0 3.036 1.812 2.5 2.5 0 0 0 1.812-3.036 17.997 17.997 0 0 0-4.682-8.269 2.5 2.5 0 0 0-3.535-.012zM106.894 99.094a2.5 2.5 0 1 0-.573-4.967 18.031 18.031 0 0 0-11.042 5.545 17.973 17.973 0 0 0-3.902 18.271 2.502 2.502 0 0 0 3.182 1.542 2.5 2.5 0 0 0 1.542-3.182 12.987 12.987 0 0 1 2.818-13.204 13.03 13.03 0 0 1 7.975-4.005zM80.391 71.341a18.028 18.028 0 0 0-8.202-3.459 2.5 2.5 0 0 0-.739 4.945 13.029 13.029 0 0 1 10.756 10.002 2.5 2.5 0 1 0 4.877-1.101 18.033 18.033 0 0 0-6.692-10.387zM121.871 47.686a2.492 2.492 0 0 0-2.838 2.108 17.966 17.966 0 0 0 4.479 14.742c.493.544 1.171.82 1.853.82a2.5 2.5 0 0 0 1.851-4.179 12.982 12.982 0 0 1-3.235-10.653 2.502 2.502 0 0 0-2.11-2.838zM162.36 114.851a2.5 2.5 0 0 0 4.836 1.27c.188-.713.333-1.448.433-2.182 1.334-9.844-5.589-18.938-15.433-20.272a2.5 2.5 0 1 0-.671 4.955c3.445.467 6.502 2.248 8.608 5.014s3.009 6.187 2.542 9.631a13.286 13.286 0 0 1-.315 1.584z"/><path class="st2" d="M143.029 72.802a2.5 2.5 0 1 0 3.179 3.86 13.526 13.526 0 0 0 4.894-9.197 13.52 13.52 0 0 0-3.043-9.964 2.502 2.502 0 0 0-3.86 3.18c1.463 1.775 2.146 4.014 1.925 6.303s-1.32 4.356-3.095 5.818zM133.672 76.824c-2.309 4.149-7.562 5.649-11.712 3.339a2.5 2.5 0 1 0-2.431 4.369 13.52 13.52 0 0 0 6.594 1.714c4.784 0 9.432-2.523 11.918-6.992a2.5 2.5 0 0 0-4.369-2.43zM101.684 70.761a13.524 13.524 0 0 0-4.925 9.18 2.501 2.501 0 0 0 4.976.498 8.554 8.554 0 0 1 3.115-5.808 8.546 8.546 0 0 1 6.31-1.903 2.503 2.503 0 0 0 2.737-2.239 2.501 2.501 0 0 0-2.239-2.737 13.527 13.527 0 0 0-9.974 3.009zM75.764 105.114a2.5 2.5 0 1 0 .91 4.917 13.52 13.52 0 0 0 8.739-5.671 13.52 13.52 0 0 0 2.17-10.189 2.501 2.501 0 0 0-4.917.909 8.554 8.554 0 0 1-1.373 6.446 8.552 8.552 0 0 1-5.529 3.588z"/><path class="st2" d="M173.71 62.513a22.583 22.583 0 0 0-20.817-13.858c-1.875 0-3.733.232-5.542.69a22.439 22.439 0 0 0-14.522-5.3 22.45 22.45 0 0 0-11.27 3.013 22.444 22.444 0 0 0-11.269-3.013 22.561 22.561 0 0 0-16.165 6.83 21.588 21.588 0 0 0-2.887-.196c-10.34 0-19.335 7.536-21.196 17.636l-.096.125a17.523 17.523 0 0 0-9.903 17.711 19.083 19.083 0 0 0-6.92 14.69c0 9.62 8.523 19.062 17.207 19.062H94.3a2.5 2.5 0 1 0 0-5H70.331c-5.818 0-12.207-7.359-12.207-14.062 0-4.597 2.258-8.914 6.042-11.547a2.5 2.5 0 0 0 1.023-2.542 12.622 12.622 0 0 1-.245-2.473c0-5.023 2.985-9.549 7.604-11.529a2.492 2.492 0 0 0 1.031-.82c.259-.353.526-.699.795-1.043a2.49 2.49 0 0 0 .5-1.163c1.215-8.007 8.25-14.045 16.363-14.045 1.04 0 2.095.101 3.137.301.417.081.848.053 1.252-.081l.32-.108a2.505 2.505 0 0 0 1.122-.736c3.34-3.82 8.16-6.01 13.222-6.01 3.538 0 6.949 1.048 9.863 3.03a2.497 2.497 0 0 0 2.812 0 17.474 17.474 0 0 1 9.864-3.03c4.548 0 8.864 1.736 12.151 4.89a2.501 2.501 0 0 0 2.501.574c1.75-.567 3.57-.854 5.412-.854 7.472 0 14.14 4.742 16.591 11.801a2.5 2.5 0 0 0 1.854 1.627c8.098 1.681 13.975 8.913 13.975 17.196 0 .535-.026 1.077-.081 1.656a2.5 2.5 0 0 0 1.584 2.563c5.3 2.057 8.724 7.058 8.724 12.74 0 6.699-4.985 12.507-11.596 13.51a3.854 3.854 0 0 0-.155.028 5.456 5.456 0 0 1-1.152.127H161.3a2.5 2.5 0 1 0 0 5h21.337c.706 0 1.423-.075 2.132-.224 8.996-1.403 15.771-9.317 15.771-18.441 0-7.141-3.959-13.494-10.23-16.652l.002-.307c0-10.173-6.903-19.112-16.602-21.766z"/><g><path class="st3" d="M138.041 79.255a2.5 2.5 0 0 0-4.369-2.43 8.62 8.62 0 0 1-11.712 3.339 2.498 2.498 0 0 0-3.4.969 2.5 2.5 0 0 0 .969 3.4 13.52 13.52 0 0 0 6.594 1.714c.389 0 .776-.023 1.163-.056 1.288 1.515 2.237 3.287 2.723 5.212a2.501 2.501 0 0 0 3.036 1.812 2.5 2.5 0 0 0 1.812-3.036 17.916 17.916 0 0 0-2.419-5.483 13.535 13.535 0 0 0 5.603-5.441zm-6.295 4.11a1.499 1.499 0 0 0-.561 2.157 16.4 16.4 0 0 1 2.217 5.025 1 1 0 0 1-1.94.489c-.528-2.091-1.577-4.102-3.035-5.816a1.499 1.499 0 0 0-1.272-.523c-.4.034-.728.05-1.034.05-2.043 0-4.071-.527-5.865-1.525a.996.996 0 0 1-.387-1.36 1 1 0 0 1 1.359-.387 10.111 10.111 0 0 0 4.901 1.274c3.676 0 7.068-1.991 8.851-5.195a1.002 1.002 0 0 1 1.36-.388.995.995 0 0 1 .387 1.359 12.008 12.008 0 0 1-4.981 4.84z"/><path class="st3" d="M173.71 62.513a22.583 22.583 0 0 0-20.817-13.858c-1.875 0-3.733.232-5.542.69a22.439 22.439 0 0 0-14.522-5.3 22.45 22.45 0 0 0-11.27 3.013 22.444 22.444 0 0 0-11.269-3.013 22.561 22.561 0 0 0-16.165 6.83 21.588 21.588 0 0 0-2.887-.196c-10.34 0-19.335 7.536-21.196 17.636l-.096.125a17.523 17.523 0 0 0-9.903 17.711 19.083 19.083 0 0 0-6.92 14.69c0 9.62 8.523 19.062 17.207 19.062H94.3a2.5 2.5 0 0 0 2.5-2.5c0-.8-.382-1.503-.966-1.961a12.983 12.983 0 0 1 3.085-12.342 13.028 13.028 0 0 1 7.975-4.006 2.5 2.5 0 1 0-.573-4.967 18.031 18.031 0 0 0-11.042 5.545 17.955 17.955 0 0 0-4.662 15.23H70.331c-5.818 0-12.207-7.359-12.207-14.062 0-4.597 2.258-8.914 6.042-11.547a2.5 2.5 0 0 0 1.023-2.542 12.525 12.525 0 0 1 6.904-13.787 13.017 13.017 0 0 1 5.279 2.361c.379.287.734.6 1.076.924a18.04 18.04 0 0 0-6.56 6.825 17.893 17.893 0 0 0-1.466 13.71 17.88 17.88 0 0 0 5.291 8.343 2.497 2.497 0 0 0 .961 4.902 13.52 13.52 0 0 0 8.739-5.671 13.52 13.52 0 0 0 2.17-10.189 2.504 2.504 0 0 0-2.913-2.004 2.5 2.5 0 0 0-2.004 2.913 8.554 8.554 0 0 1-1.373 6.446 8.805 8.805 0 0 1-.811.996 12.912 12.912 0 0 1-5.263-7.147 12.933 12.933 0 0 1 1.059-9.905 13.019 13.019 0 0 1 5.086-5.121c.359.794.649 1.622.843 2.481a2.5 2.5 0 1 0 4.877-1.101 18.033 18.033 0 0 0-6.692-10.387 18.097 18.097 0 0 0-5.288-2.761c1.681-7.43 8.414-12.902 16.135-12.902.247 0 .496.024.744.036-.921 6.685 2.022 13.396 7.565 17.254a13.514 13.514 0 0 0-2.788 6.973 2.501 2.501 0 0 0 4.976.498 8.554 8.554 0 0 1 3.115-5.808 8.54 8.54 0 0 1 6.31-1.904 2.499 2.499 0 1 0 .497-4.976 13.506 13.506 0 0 0-8.183 1.783c-5.149-2.879-7.742-8.938-6.233-14.658a17.558 17.558 0 0 1 13.049-5.833c3.036 0 5.976.777 8.591 2.248a17.951 17.951 0 0 0 4.63 13.243c.493.544 1.171.82 1.853.82a2.5 2.5 0 0 0 1.851-4.179 12.96 12.96 0 0 1-3.324-9.681 17.47 17.47 0 0 1 8.939-2.45c4.548 0 8.864 1.736 12.151 4.89a2.502 2.502 0 0 0 2.501.575c1.75-.567 3.57-.854 5.412-.854a17.577 17.577 0 0 1 16.104 10.558c-2.469 2.827-6.007 4.462-9.776 4.462a13.03 13.03 0 0 1-8.067-2.798 13.503 13.503 0 0 0-3.096-8.376c-.495-.6-1.21-.91-1.931-.91a2.502 2.502 0 0 0-1.929 4.09c1.463 1.775 2.146 4.014 1.925 6.303s-1.321 4.356-3.096 5.818a2.5 2.5 0 1 0 3.179 3.86 13.537 13.537 0 0 0 3.976-5.432 18.042 18.042 0 0 0 9.039 2.445 17.944 17.944 0 0 0 13.592-6.216c7.195 2.166 12.299 8.81 12.48 16.409a17.968 17.968 0 0 0-5.332 1.758 8.578 8.578 0 0 1-3.632.807 8.604 8.604 0 0 1-7.61-4.564 2.502 2.502 0 0 0-3.38-1.037 2.499 2.499 0 0 0-1.036 3.38 13.523 13.523 0 0 0 8.034 6.633c.414.127.832.227 1.252.313a18.335 18.335 0 0 0-1.859 3.297 2.5 2.5 0 1 0 4.586 1.993 12.946 12.946 0 0 1 6.369-6.584l.022-.01a13.05 13.05 0 0 1 4.493-1.188c5.077 2.147 8.339 7.032 8.339 12.573 0 6.699-4.985 12.507-11.596 13.51a3.854 3.854 0 0 0-.155.028 5.456 5.456 0 0 1-1.152.127h-15.17c.061-.321.117-.642.161-.965 1.334-9.844-5.589-18.938-15.433-20.272a2.5 2.5 0 1 0-.671 4.955c3.445.467 6.502 2.248 8.608 5.014s3.009 6.187 2.542 9.631a13.42 13.42 0 0 1-.314 1.585c-.005.017-.004.035-.008.052H161.3a2.5 2.5 0 1 0 0 5h21.337c.706 0 1.423-.075 2.132-.224 8.996-1.403 15.771-9.317 15.771-18.441 0-7.141-3.959-13.494-10.23-16.652l.002-.307c0-10.173-6.903-19.112-16.602-21.766zm25.331 38.725c0 8.379-6.234 15.67-14.502 16.959l-.076.014a8.947 8.947 0 0 1-1.825.192H161.3c-.551 0-1-.449-1-1s.449-1 1-1h1.052a1.5 1.5 0 0 0 1.479-1.247c.142-.551.253-1.119.331-1.69a14.417 14.417 0 0 0-2.835-10.741 14.418 14.418 0 0 0-9.6-5.591 1.002 1.002 0 0 1-.857-1.125 1.005 1.005 0 0 1 1.126-.857c9.024 1.223 15.371 9.56 14.148 18.583-.04.296-.092.592-.149.886a1.499 1.499 0 0 0 1.474 1.781h15.17a6.87 6.87 0 0 0 1.459-.159l.072-.013c7.338-1.113 12.871-7.559 12.871-14.993 0-6.1-3.633-11.577-9.255-13.955a1.505 1.505 0 0 0-.706-.113 14.53 14.53 0 0 0-5.002 1.322l-.031.014a14.48 14.48 0 0 0-7.106 7.344 1 1 0 1 1-1.835-.797 16.824 16.824 0 0 1 1.706-3.027 1.501 1.501 0 0 0-.918-2.337 12.033 12.033 0 0 1-8.265-6.181.994.994 0 0 1-.073-.761.995.995 0 0 1 .953-.708c.372 0 .712.204.886.532a10.09 10.09 0 0 0 8.935 5.36c1.483 0 2.919-.319 4.266-.947l.054-.026a16.44 16.44 0 0 1 4.888-1.61 1.5 1.5 0 0 0 1.256-1.516c-.196-8.273-5.64-15.43-13.547-17.81a1.497 1.497 0 0 0-1.566.454 16.481 16.481 0 0 1-13.251 5.679 16.583 16.583 0 0 1-7.494-2.224 1.499 1.499 0 0 0-2.145.741 12.118 12.118 0 0 1-3.537 4.831.995.995 0 0 1-1.407-.137.997.997 0 0 1 .137-1.408 10.048 10.048 0 0 0 3.635-6.832 10.04 10.04 0 0 0-2.26-7.401 1.002 1.002 0 0 1 .77-1.637c.301 0 .583.133.773.364a11.964 11.964 0 0 1 2.754 7.45 1.5 1.5 0 0 0 .571 1.15 14.427 14.427 0 0 0 8.995 3.12 14.49 14.49 0 0 0 10.906-4.975 1.5 1.5 0 0 0 .246-1.585 19.055 19.055 0 0 0-23.351-10.534.997.997 0 0 1-1.002-.229 18.97 18.97 0 0 0-13.19-5.307c-3.414 0-6.77.92-9.704 2.66a1.503 1.503 0 0 0-.731 1.182c-.29 4.006 1.028 7.84 3.709 10.797.18.198.271.454.258.721a.998.998 0 0 1-1.739.623 16.37 16.37 0 0 1-4.244-12.139 1.5 1.5 0 0 0-.761-1.403 19.055 19.055 0 0 0-9.326-2.441 19.092 19.092 0 0 0-14.164 6.329c-.159.177-.274.39-.335.621a14.495 14.495 0 0 0 6.952 16.35 1.504 1.504 0 0 0 1.488-.013 12.067 12.067 0 0 1 7.278-1.587 1.001 1.001 0 0 1-.198 1.991 10.387 10.387 0 0 0-1.027-.052 9.98 9.98 0 0 0-6.384 2.287 10.042 10.042 0 0 0-3.658 6.819.996.996 0 0 1-1.094.896 1.001 1.001 0 0 1-.896-1.095 12.048 12.048 0 0 1 2.48-6.202 1.497 1.497 0 0 0-.328-2.151c-5.053-3.516-7.775-9.725-6.936-15.818a1.497 1.497 0 0 0-1.417-1.703l-.231-.014a9.468 9.468 0 0 0-.582-.024c-8.352 0-15.753 5.918-17.598 14.071a1.499 1.499 0 0 0 .996 1.756 16.529 16.529 0 0 1 4.849 2.531 16.53 16.53 0 0 1 6.135 9.522.999.999 0 1 1-1.951.44 14.5 14.5 0 0 0-.939-2.769 1.503 1.503 0 0 0-1.366-.882c-.254 0-.506.064-.732.191a14.498 14.498 0 0 0-5.671 5.713 14.42 14.42 0 0 0-1.181 11.047 14.503 14.503 0 0 0 5.871 7.973 1.495 1.495 0 0 0 1.928-.227c.377-.405.687-.786.949-1.168a10.044 10.044 0 0 0 1.612-7.569 1.003 1.003 0 0 1 .988-1.183c.479 0 .891.345.979.819a12.03 12.03 0 0 1-1.931 9.066 12.029 12.029 0 0 1-7.775 5.046 1 1 0 0 1-1.167-.801.992.992 0 0 1 .782-1.157 1.5 1.5 0 0 0 .693-2.59 16.428 16.428 0 0 1-4.849-7.645 16.409 16.409 0 0 1 1.344-12.569 16.53 16.53 0 0 1 6.014-6.256 1.501 1.501 0 0 0 .26-2.376 14.066 14.066 0 0 0-1.201-1.03 14.584 14.584 0 0 0-5.887-2.636 1.499 1.499 0 0 0-.944.116c-4.862 2.318-8.003 7.29-8.003 12.668 0 .925.092 1.856.274 2.767a1 1 0 0 1-.409 1.016 15.58 15.58 0 0 0-6.685 12.778c0 7.563 7.045 15.562 13.707 15.562h20.286a1.5 1.5 0 0 0 1.481-1.741c-.832-5.105.726-10.194 4.273-13.961a16.527 16.527 0 0 1 10.122-5.084.998.998 0 0 1 .897 1.614.995.995 0 0 1-.669.372 14.528 14.528 0 0 0-8.895 4.468c-3.491 3.708-4.778 8.853-3.44 13.764a1.5 1.5 0 0 0 .522.787.99.99 0 0 1 .391.78c0 .551-.449 1-1 1h-23.97c-7.927 0-15.707-8.699-15.707-17.562A17.516 17.516 0 0 1 61 87.302c.388-.321.589-.814.535-1.315a16.158 16.158 0 0 1-.092-1.713c0-6.156 3.591-11.841 9.147-14.485a1.5 1.5 0 0 0 .552-.45l.089-.117c.144-.188.242-.408.285-.641 1.723-9.354 10.201-16.407 19.721-16.407.887 0 1.791.061 2.686.182a1.502 1.502 0 0 0 1.276-.44c3.945-4.052 9.445-6.376 15.09-6.376 3.699 0 7.336.972 10.518 2.811a1.5 1.5 0 0 0 1.502 0 21.049 21.049 0 0 1 10.519-2.811c4.958 0 9.772 1.757 13.555 4.947a1.499 1.499 0 0 0 1.335.307 21.055 21.055 0 0 1 5.173-.644 21.01 21.01 0 0 1 19.433 12.937 1.5 1.5 0 0 0 .988.868c9.125 2.497 15.498 10.853 15.498 20.319l-.002.285a1.5 1.5 0 0 0 .825 1.361c5.804 2.927 9.408 8.795 9.408 15.318z"/></g><g><path class="st6" d="M128 114.195c-6.479 0-11.75 5.271-11.75 11.75s5.271 11.75 11.75 11.75 11.75-5.271 11.75-11.75-5.271-11.75-11.75-11.75zm0 18.499a6.758 6.758 0 0 1-6.75-6.75 6.758 6.758 0 0 1 6.75-6.75 6.758 6.758 0 0 1 6.75 6.75 6.757 6.757 0 0 1-6.75 6.75z"/><path class="st6" d="m151.002 106.986-4.044-4.044a5.024 5.024 0 0 0-6.101-.775l-3.981 2.35-1.154-4.479a5.023 5.023 0 0 0-4.862-3.764h-5.719a5.022 5.022 0 0 0-4.862 3.766l-1.153 4.477-3.984-2.352a5.025 5.025 0 0 0-6.099.777l-4.044 4.044a5.02 5.02 0 0 0-.775 6.101l2.35 3.981-4.48 1.155a5.025 5.025 0 0 0-3.763 4.862v5.719a5.024 5.024 0 0 0 3.766 4.863l4.477 1.154-2.351 3.983a5.022 5.022 0 0 0 .777 6.1l4.043 4.043a5.022 5.022 0 0 0 6.102.776l3.981-2.35 1.155 4.48a5.022 5.022 0 0 0 4.861 3.763h5.719a5.023 5.023 0 0 0 4.863-3.767l1.154-4.477 3.984 2.352a5.024 5.024 0 0 0 6.099-.777l4.044-4.044a5.023 5.023 0 0 0 .775-6.102l-2.35-3.98 4.479-1.154a5.023 5.023 0 0 0 3.764-4.862v-5.719a5.024 5.024 0 0 0-3.763-4.862l-.004-.001-4.477-1.154 2.351-3.983a5.022 5.022 0 0 0-.778-6.1zm1.655 16.078.624-2.421-.61 2.442-.014 5.74-7.696 1.983a2.5 2.5 0 0 0-1.529 3.692l4.035 6.868-4.068 4.049-6.844-4.04a2.498 2.498 0 0 0-3.692 1.529l-2.004 7.71-5.74-.014-1.983-7.696a2.5 2.5 0 0 0-3.692-1.529l-6.868 4.035-4.049-4.069 4.039-6.843a2.499 2.499 0 0 0-1.529-3.691l-7.709-2.004.014-5.74 7.695-1.983a2.5 2.5 0 0 0 1.529-3.691l-4.034-6.869 4.068-4.049 6.844 4.04a2.504 2.504 0 0 0 2.228.157 2.495 2.495 0 0 0 1.464-1.686l2.003-7.709 5.74.014 1.983 7.695a2.5 2.5 0 0 0 3.692 1.529l6.868-4.035 4.049 4.068-4.04 6.844a2.501 2.501 0 0 0 1.529 3.692l7.697 1.982z"/></g><g><path class="st6" d="M115.474 174.889a5.483 5.483 0 0 0-5.477 5.477v25.053a5.483 5.483 0 0 0 5.477 5.477h25.053a5.483 5.483 0 0 0 5.477-5.477v-25.053a5.483 5.483 0 0 0-5.477-5.477h-25.053zm25.529 5.476v25.053a.478.478 0 0 1-.477.477h-25.053a.478.478 0 0 1-.477-.477v-25.053c0-.263.214-.477.477-.477h25.053a.479.479 0 0 1 .477.477z"/><path class="st6" d="M120.867 185.147a2.5 2.5 0 1 0 0 5H128a2.5 2.5 0 1 0 0-5h-7.133zM120.867 195.32a2.5 2.5 0 1 0 0 5h14.266a2.5 2.5 0 1 0 0-5h-14.266z"/><g><path class="st6" d="M188.226 210.895a5.483 5.483 0 0 0 5.477-5.477v-25.053a5.483 5.483 0 0 0-5.477-5.477h-25.053a5.483 5.483 0 0 0-5.477 5.477v25.053a5.483 5.483 0 0 0 5.477 5.477h25.053zm-25.53-5.477v-25.053c0-.263.214-.477.477-.477h25.053c.263 0 .477.214.477.477v25.053a.478.478 0 0 1-.477.477h-25.053a.478.478 0 0 1-.477-.477z"/><path class="st6" d="M175.699 190.147a2.5 2.5 0 1 0 0-5h-7.133a2.5 2.5 0 1 0 0 5h7.133zM182.832 200.32a2.5 2.5 0 1 0 0-5h-14.266a2.5 2.5 0 1 0 0 5h14.266z"/></g><g><path class="st6" d="M67.774 174.889a5.483 5.483 0 0 0-5.477 5.477v25.053a5.483 5.483 0 0 0 5.477 5.477h25.053a5.483 5.483 0 0 0 5.477-5.477v-25.053a5.483 5.483 0 0 0-5.477-5.477H67.774zm25.53 5.476v25.053a.478.478 0 0 1-.477.477H67.774a.478.478 0 0 1-.477-.477v-25.053c0-.263.214-.477.477-.477h25.053a.479.479 0 0 1 .477.477z"/><path class="st6" d="M73.168 185.147a2.5 2.5 0 1 0 0 5h7.133a2.5 2.5 0 1 0 0-5h-7.133zM73.168 195.32a2.5 2.5 0 1 0 0 5h14.266a2.5 2.5 0 1 0 0-5H73.168z"/></g></g><g><path class="st7" d="M116.25 125.945c0 6.479 5.271 11.75 11.75 11.75s11.75-5.271 11.75-11.75-5.271-11.75-11.75-11.75-11.75 5.271-11.75 11.75zm22 0c0 5.652-4.598 10.25-10.25 10.25s-10.25-4.598-10.25-10.25 4.598-10.25 10.25-10.25 10.25 4.598 10.25 10.25z"/><path class="st7" d="M119.75 125.945c0 4.549 3.701 8.25 8.25 8.25 4.549 0 8.25-3.701 8.25-8.25 0-4.549-3.701-8.25-8.25-8.25-4.549 0-8.25 3.701-8.25 8.25zm15 0a6.758 6.758 0 0 1-6.75 6.75 6.758 6.758 0 0 1-6.75-6.75 6.758 6.758 0 0 1 6.75-6.75 6.758 6.758 0 0 1 6.75 6.75z"/><path class="st7" d="m151.002 106.986-4.044-4.044a5.025 5.025 0 0 0-6.101-.775l-3.981 2.35-1.154-4.479a5.023 5.023 0 0 0-4.862-3.764h-5.719a5.022 5.022 0 0 0-4.862 3.766l-1.153 4.477-3.984-2.352a5.017 5.017 0 0 0-6.098.777L105 106.986a5.02 5.02 0 0 0-.775 6.101l2.35 3.981-4.48 1.155a5.025 5.025 0 0 0-3.763 4.862v5.719a5.024 5.024 0 0 0 3.766 4.863l4.477 1.154-2.351 3.983a5.022 5.022 0 0 0 .777 6.1l4.043 4.043a5.016 5.016 0 0 0 6.102.776l3.981-2.35 1.155 4.48a5.022 5.022 0 0 0 4.861 3.763h5.719a5.023 5.023 0 0 0 4.863-3.767l1.154-4.477 3.984 2.352a5.018 5.018 0 0 0 2.546.693 5.015 5.015 0 0 0 3.552-1.471l4.044-4.044a5.023 5.023 0 0 0 .775-6.102l-2.35-3.98 4.479-1.154a5.023 5.023 0 0 0 3.764-4.862v-5.719a5.024 5.024 0 0 0-3.763-4.862l-.004-.001-4.477-1.154 2.351-3.983a5.02 5.02 0 0 0-.778-6.099zm2.279 13.657-.61 2.442-.014 5.74-7.696 1.983a2.5 2.5 0 0 0-1.529 3.692l4.035 6.868-4.068 4.049-6.844-4.04a2.495 2.495 0 0 0-2.228-.157c-.726.3-1.269.925-1.464 1.686l-2.004 7.71-5.74-.014-1.983-7.696a2.5 2.5 0 0 0-3.692-1.529l-6.868 4.035-4.049-4.069 4.039-6.843a2.499 2.499 0 0 0-1.529-3.691l-7.709-2.004.014-5.74 7.695-1.983a2.5 2.5 0 0 0 1.529-3.691l-4.034-6.869 4.068-4.049 6.844 4.04a2.5 2.5 0 0 0 3.692-1.529l2.003-7.709 5.74.014 1.983 7.695a2.5 2.5 0 0 0 3.692 1.529l6.868-4.035 4.049 4.068-4.04 6.844a2.501 2.501 0 0 0 1.529 3.692l7.696 1.983.625-2.422zm-2.794-8.32-2.351 3.983a1.5 1.5 0 0 0 .917 2.215l3.395.875a1.496 1.496 0 0 0-.619.873l-.25.969-6.244-1.609a1.006 1.006 0 0 1-.674-.586 1.004 1.004 0 0 1 .063-.891l4.04-6.844a1.5 1.5 0 0 0-.229-1.821l-4.049-4.068a1.497 1.497 0 0 0-1.823-.235l-6.873 4.037a.996.996 0 0 1-.889.061 1 1 0 0 1-.585-.674l-1.983-7.695a1.5 1.5 0 0 0-1.449-1.126l-5.74-.014h-.004a1.5 1.5 0 0 0-1.452 1.123l-2.004 7.713a1.004 1.004 0 0 1-.968.749.997.997 0 0 1-.508-.139l-6.844-4.04a1.498 1.498 0 0 0-1.821.229l-4.068 4.049a1.5 1.5 0 0 0-.235 1.823l4.036 6.872c.159.269.182.601.063.89-.12.289-.372.508-.674.586l-7.695 1.983a1.5 1.5 0 0 0-1.126 1.449l-.014 5.74a1.5 1.5 0 0 0 1.123 1.455l7.713 2.005a1.001 1.001 0 0 1 .611 1.476l-4.039 6.843a1.5 1.5 0 0 0 .228 1.82l4.049 4.069a1.497 1.497 0 0 0 1.823.235l6.871-4.036a.997.997 0 0 1 1.476.612l1.983 7.696a1.5 1.5 0 0 0 1.449 1.126l5.74.014h.004a1.5 1.5 0 0 0 1.452-1.123l2.005-7.713a1.005 1.005 0 0 1 1.477-.612l6.844 4.04a1.498 1.498 0 0 0 1.821-.229l4.068-4.049a1.5 1.5 0 0 0 .235-1.823l-4.036-6.871a1.003 1.003 0 0 1 .612-1.477l7.696-1.983a1.5 1.5 0 0 0 1.126-1.449l.014-5.558.566-2.265a1.493 1.493 0 0 0-.01-.766 3.522 3.522 0 0 1 1.445 2.844v5.719a3.522 3.522 0 0 1-2.638 3.41l-4.479 1.154a1.501 1.501 0 0 0-.918 2.215l2.349 3.979a3.523 3.523 0 0 1-.543 4.28l-4.044 4.044a3.527 3.527 0 0 1-4.275.546l-3.984-2.352a1.502 1.502 0 0 0-2.216.917l-1.153 4.475a3.525 3.525 0 0 1-3.411 2.643h-5.719a3.521 3.521 0 0 1-3.409-2.638l-1.155-4.48a1.5 1.5 0 0 0-2.216-.917l-3.98 2.349a3.53 3.53 0 0 1-1.788.488 3.501 3.501 0 0 1-2.492-1.032l-4.044-4.044a3.523 3.523 0 0 1-.546-4.276l2.351-3.983a1.5 1.5 0 0 0-.917-2.215l-4.476-1.153a3.524 3.524 0 0 1-2.642-3.411v-5.719a3.522 3.522 0 0 1 2.637-3.409l4.48-1.155a1.5 1.5 0 0 0 .917-2.215l-2.349-3.981a3.52 3.52 0 0 1 .544-4.279l4.044-4.044a3.521 3.521 0 0 1 4.276-.547l3.984 2.352a1.502 1.502 0 0 0 2.216-.918l1.153-4.475a3.523 3.523 0 0 1 3.41-2.642h5.719a3.522 3.522 0 0 1 3.41 2.638l1.154 4.479a1.501 1.501 0 0 0 2.216.918l3.979-2.349a3.537 3.537 0 0 1 1.789-.488c.942 0 1.826.366 2.491 1.031l4.045 4.045a3.533 3.533 0 0 1 .541 4.282zM115.474 174.889a5.483 5.483 0 0 0-5.477 5.477v25.053a5.483 5.483 0 0 0 5.477 5.477h25.053a5.483 5.483 0 0 0 5.477-5.477v-25.053a5.483 5.483 0 0 0-5.477-5.477h-25.053zm29.029 5.476v25.053a3.981 3.981 0 0 1-3.977 3.977h-25.053a3.981 3.981 0 0 1-3.977-3.977v-25.053a3.981 3.981 0 0 1 3.977-3.977h25.053a3.983 3.983 0 0 1 3.977 3.977z"/><path class="st7" d="M115.474 178.389a1.98 1.98 0 0 0-1.977 1.977v25.053a1.98 1.98 0 0 0 1.977 1.977h25.053a1.98 1.98 0 0 0 1.977-1.977v-25.053a1.98 1.98 0 0 0-1.977-1.977h-25.053zm25.529 1.976v25.053a.478.478 0 0 1-.477.477h-25.053a.478.478 0 0 1-.477-.477v-25.053c0-.263.214-.477.477-.477h25.053a.479.479 0 0 1 .477.477z"/><path class="st7" d="M120.867 185.147a2.5 2.5 0 1 0 0 5H128a2.5 2.5 0 1 0 0-5h-7.133zm8.133 2.5c0 .551-.449 1-1 1h-7.133c-.551 0-1-.449-1-1s.449-1 1-1H128c.551 0 1 .449 1 1zM120.867 195.32a2.5 2.5 0 1 0 0 5h14.266a2.5 2.5 0 1 0 0-5h-14.266zm15.266 2.5c0 .551-.449 1-1 1h-14.266c-.551 0-1-.449-1-1s.449-1 1-1h14.266c.551 0 1 .448 1 1zM188.226 210.895a5.483 5.483 0 0 0 5.477-5.477v-25.053a5.483 5.483 0 0 0-5.477-5.477h-25.053a5.483 5.483 0 0 0-5.477 5.477v25.053a5.483 5.483 0 0 0 5.477 5.477h25.053zm-29.03-5.477v-25.053a3.981 3.981 0 0 1 3.977-3.977h25.053a3.981 3.981 0 0 1 3.977 3.977v25.053a3.981 3.981 0 0 1-3.977 3.977h-25.053a3.981 3.981 0 0 1-3.977-3.977z"/><path class="st7" d="M188.226 207.395a1.98 1.98 0 0 0 1.977-1.977v-25.053a1.98 1.98 0 0 0-1.977-1.977h-25.053a1.98 1.98 0 0 0-1.977 1.977v25.053a1.98 1.98 0 0 0 1.977 1.977h25.053zm-25.53-1.977v-25.053c0-.263.214-.477.477-.477h25.053c.263 0 .477.214.477.477v25.053a.478.478 0 0 1-.477.477h-25.053a.478.478 0 0 1-.477-.477z"/><path class="st7" d="M175.699 190.147a2.5 2.5 0 1 0 0-5h-7.133a2.5 2.5 0 1 0 0 5h7.133zm-8.133-2.5c0-.551.449-1 1-1h7.133c.551 0 1 .449 1 1s-.449 1-1 1h-7.133c-.551 0-1-.448-1-1zM182.832 200.32a2.5 2.5 0 1 0 0-5h-14.266a2.5 2.5 0 1 0 0 5h14.266zm-15.266-2.5c0-.551.449-1 1-1h14.266c.551 0 1 .449 1 1s-.449 1-1 1h-14.266c-.551 0-1-.449-1-1z"/><g><path class="st7" d="M67.774 174.889a5.483 5.483 0 0 0-5.477 5.477v25.053a5.483 5.483 0 0 0 5.477 5.477h25.053a5.483 5.483 0 0 0 5.477-5.477v-25.053a5.483 5.483 0 0 0-5.477-5.477H67.774zm29.03 5.476v25.053a3.981 3.981 0 0 1-3.977 3.977H67.774a3.981 3.981 0 0 1-3.977-3.977v-25.053a3.981 3.981 0 0 1 3.977-3.977h25.053a3.983 3.983 0 0 1 3.977 3.977z"/><path class="st7" d="M67.774 178.389a1.98 1.98 0 0 0-1.977 1.977v25.053a1.98 1.98 0 0 0 1.977 1.977h25.053a1.98 1.98 0 0 0 1.977-1.977v-25.053a1.98 1.98 0 0 0-1.977-1.977H67.774zm25.53 1.976v25.053a.478.478 0 0 1-.477.477H67.774a.478.478 0 0 1-.477-.477v-25.053c0-.263.214-.477.477-.477h25.053a.479.479 0 0 1 .477.477z"/></g><g><path class="st7" d="M73.168 185.147a2.5 2.5 0 1 0 0 5h7.133a2.5 2.5 0 1 0 0-5h-7.133zm8.133 2.5c0 .551-.449 1-1 1h-7.133c-.551 0-1-.449-1-1s.449-1 1-1h7.133c.551 0 1 .449 1 1z"/></g><g><path class="st7" d="M73.168 195.32a2.5 2.5 0 1 0 0 5h14.266a2.5 2.5 0 1 0 0-5H73.168zm15.266 2.5c0 .551-.449 1-1 1H73.168c-.551 0-1-.449-1-1s.449-1 1-1h14.266c.551 0 1 .448 1 1z"/></g></g></g></svg>